<svg xmlns="http://www.w3.org/2000/svg" viewBox="0 0 268.658 268.658"><g><path d="M215.496 55.67C204.408 14.52 169.82-2.593 129.003.314c-39.326 2.8-74.334 28.674-79.53 69.523-2.44 19.173 2.305 39.213 13.183 55.202 5.384 7.914 12.492 14.26 19.02 21.173 13.346 14.135 19.796 28.788 19.66 48.042-3.878.087-7.422 2.357-8.513 6.278-.837 3.008.134 7.72 3.012 9.518-2.84 2.712-4.306 6.696-3.62 10.644.473 2.724 2.11 5.76 4.448 7.61-5.868 8.093-2.933 14.365 4.696 18.712-.01.127-.033.253.04.4 15.675 31.404 66.823 26.2 80.62-3.88.192-.418.19-.815.102-1.18 4.705-4.73 5.82-10.903 1.127-18.58 3.46-4.376 4.426-10.187.916-17.907-.004-.01-.012-.015-.016-.024 1.518-2.916 1.67-6.357.435-9.458-1.115-2.796-4.048-6.567-7.35-7.01.102-28.73 26.325-47.692 37.048-73.294 7.896-18.854 6.443-41.005 1.213-60.415zM104.04 248.37c17.97 8.193 54.432 7.947 72.13-1.697-15.958 24.08-53.828 24.108-72.13 1.697zm37.93 1.61c-5.638.288-11.33.04-16.956-.33-8.58-.566-35.66-.843-27.307-20.37 6.936 6.602 46.666 7.394 50.07 7.137 10.36-.783 25.427-3.31 33.32-10.37 9.404 19.84-28.694 23.4-39.126 23.933zm39.176-28.385c-.93-.06-1.835.755-1.47 1.75-8.56 8.77-29.843 10.024-38.076 10.214-3.878.088-30.665-1.77-39.978-4.864-.017-.24-.128-.483-.372-.703-2.22-2-4.55-3.325-5.62-6.31-1.26-3.517-.324-6.843 1.687-9.715 8.344 9.402 29.352 7.612 39.842 7.17 14.304-.605 35.214 1.51 44.852-10.823 2.165 5.564 1.51 9.897-.866 13.28zm-3.778-28.618c1.554 1 2.994 1.943 4.034 3.92.95 1.808 1.356 3.793 1.27 5.767-.362.066-.712.278-.978.684-9.342 14.255-66.823 19.973-82.926 5.94-.025-.094-.01-.187-.06-.282-1.292-2.35-3.18-3.907-2.858-6.878.312-2.877 2.737-5.258 5.484-5.97-.015.51.02.985-.003 1.503-.038.836.364 1.345.903 1.588.14.123.312.227.533.292 23.58 7.038 48.19 11.553 71.182.446.643 2.552 4.654 1.4 4.15-1.292-.367-1.953-.597-3.853-.73-5.717zm-4.014 3.31c-.302-.01-.615.033-.94.192-21.893 10.75-44.66 5.498-67.373.825 5.332-43.07-36.817-57.435-48.19-94.112C40.29 49.777 82.714 5.843 134.784 4.38c23.467-.658 48.036 4.98 63.086 24.315 14.337 18.423 19.58 45.638 16.692 68.47-4.7 37.144-45.857 60.13-41.208 99.12z"/><path d="M174.177 193.41c-8.178 1.067-16.104 2.272-24.37 2.576-.715.026-.713 1.075 0 1.11 8.038.406 16.775.11 24.623-1.822 1.01-.25.826-2.005-.253-1.864zM172.483 186.958c-6.676.376-13.126.973-19.836.793-.667-.017-.625.932 0 1.01 6.46.803 13.633 1.008 20.037-.307.835-.172.655-1.543-.2-1.495zM175.813 178.58c-7.93.428-15.792.798-23.74.808-.598 0-.586.882 0 .924 7.855.555 15.89.654 23.74-.006 1.094-.092 1.12-1.788 0-1.727zM179.228 170.508c-9.43.07-18.835.352-28.273.31-.58-.004-.54.8 0 .87 9.177 1.2 19.07 1.528 28.273.427.998-.12 1.064-1.615 0-1.607zM178.067 159.928c-8.206-.4-16.66-.275-24.864.163-.76.04-.76 1.14 0 1.18 8.204.44 16.656.564 24.864.163.967-.047.97-1.457 0-1.505zM188.243 152.738c-9.636-.46-19.186-.093-28.822-1.077-.588-.06-.733.96-.14 1.042 9.43 1.323 19.46 2.562 28.963 1.507.924-.104.965-1.426 0-1.472zM193.92 141.125c-10.032.396-19.916 1.214-29.976.9-.64-.02-.636.96 0 .993 9.96.522 20.253.827 30.156-.567.755-.105.573-1.355-.18-1.325zM198.437 131.967c-11.366-.052-22.534.59-33.918-.19-.66-.045-.63.934 0 1.01 11.026 1.34 22.86 2.326 33.917.873 1.043-.137 1.124-1.687 0-1.693zM205.19 122.017c-12.17-.552-24.55-.01-36.73.3-.65.016-.65.992 0 1.008 12.18.31 24.56.852 36.73.3 1.034-.048 1.036-1.56 0-1.608zM210.286 112.025c-13.498.32-26.596 1.24-40.11-.003-.502-.046-.627.82-.12.89 13.18 1.798 27.25 2.876 40.42.524.803-.144.61-1.43-.19-1.41zM213.07 100.185c-14.23.473-28.055 1.973-42.35 1.122-.785-.047-.77 1.148 0 1.214 13.88 1.194 28.83 2.08 42.588-.572.996-.192.766-1.796-.24-1.763zM215.093 88.974c-.606-.24-1.21-.482-1.813-.722-.463-.184-.887.29-.89.73-12.95.135-25.903.357-38.847.68-.746.02-.75 1.157 0 1.164 13.76.14 27.525.182 41.285.106 1.193-.006 1.263-1.56.265-1.958zM214.23 79.675c-15.273-1.148-31.044-.202-46.343.395-.7.027-.707 1.09 0 1.094 15.372.074 31.002.935 46.344.135 1.052-.056 1.04-1.548 0-1.625zM214.23 69.415c-14.692-.175-29.377.22-44.075-.13-.542-.012-.536.81 0 .84 14.635.79 29.424 1.547 44.076.95 1.064-.044 1.073-1.646 0-1.66zM212.75 61.277c-14.518-2.098-30.203-2.246-44.86-2.178-.664.002-.63.938 0 1.008 14.516 1.61 30.07 3.15 44.667 2.597.773-.03 1.04-1.306.192-1.428zM208.89 51.784c-2.552 2.366-16.848-.812-20.585-1.13-7.538-.646-15.082-1.248-22.623-1.85-.743-.058-.72 1.066 0 1.146 8.078.9 16.156 1.796 24.24 2.65 6.045.64 13.333 2.65 19.332 1.67.376-.06.66-.427.768-.766.094-.3.19-.597.283-.897.264-.84-.823-1.373-1.416-.823zM208.025 42.243c-13.826-.383-27.473-.496-41.255-1.927-.58-.06-.72.943-.14 1.025 13.607 1.9 27.65 3.317 41.395 2.63 1.106-.055 1.117-1.696 0-1.727zM201.818 31.6c-11.313-.81-22.595-.47-33.927-1.658-.892-.093-1.11 1.45-.213 1.58 11.017 1.568 23.058 3.028 34.14 1.652.99-.124 1.032-1.5 0-1.574zM194.56 25.14c-.15-.117-.296-.234-.446-.352-.515-.405-1.08-.334-1.473.19-.077.104-.157.21-.236.313-.184.247-.14.51-.02.748-2.682-.627-8.877-1.61-9.612-1.68l-9.71-.923c-7.546-.716-15.093-1.496-22.66-1.966-.625-.04-.784 1.016-.15 1.107 9.19 1.315 18.44 2.217 27.664 3.23 4.035.444 13.51 3.772 16.646.78.366-.348.428-1.11 0-1.446zM188.225 16.758c-13.507-1.442-27.09-2.257-40.656-2.894-.917-.043-.906 1.36 0 1.42 13.586.91 27.11 2.27 40.655 3.628 1.382.14 1.364-2.008 0-2.154z"/></g></svg>