<svg xmlns="http://www.w3.org/2000/svg" viewBox="0 0 518.373 518.373"><path d="M518.348 174.21c0-23.02-8.954-44.64-25.23-60.908L405.053 25.23C388.783 8.96 367.157 0 344.153 0s-44.638 8.96-60.907 25.237L25.21 283.272c-33.58 33.582-33.58 88.224 0 121.806l88.066 88.065c16.27 16.27 37.897 25.23 60.9 25.23.675 0 1.345-.034 2.018-.05v.05H375.1v-13.828H220.993c5.024-3.268 9.752-7.07 14.09-11.408l139.704-139.7h.313v-.314L493.118 235.11c16.27-16.27 25.23-37.898 25.23-60.9zM293.023 35.005c13.662-13.655 31.82-21.178 51.13-21.178 19.31 0 37.467 7.523 51.122 21.18l56.27 56.275-1.586 1.587c28.188 28.19 28.188 74.064 0 102.253L308.336 336.745 149.812 178.22l143.21-143.214zm-67.718 448.36c-13.662 13.656-31.82 21.18-51.13 21.18s-37.468-7.517-51.123-21.18L34.987 395.31c-13.655-13.663-21.178-31.82-21.178-51.13 0-19.312 7.515-37.47 21.177-51.13l105.05-105.052 158.53 158.524L191.932 453.16l9.778 9.776 109.5-109.5h44.028l-129.93 129.93zm143.76-143.758h-44.03l134.7-134.71c22.496-22.494 29.898-54.433 22.257-83.167l1.348 1.35c13.655 13.654 21.178 31.81 21.178 51.13 0 19.31-7.516 37.467-21.178 51.122L369.064 339.608z"/></svg>