<svg xmlns="http://www.w3.org/2000/svg" viewBox="0 0 443.92 443.92"><g><path d="M417.5 126.535l-26.507-26.508c-3.65-3.65-8.502-5.66-13.664-5.66s-10.016 2.01-13.665 5.66l-47.468 47.468V30.23c0-3.038-2.463-5.5-5.5-5.5h-18.405V19.5c0-10.752-8.748-19.5-19.5-19.5s-19.5 8.748-19.5 19.5v5.23h-12.267V19.5c0-10.752-8.748-19.5-19.5-19.5s-19.5 8.748-19.5 19.5v5.23h-12.267V19.5c0-10.752-8.748-19.5-19.5-19.5s-19.5 8.748-19.5 19.5v5.23H138.49V19.5c0-10.752-8.747-19.5-19.5-19.5s-19.5 8.748-19.5 19.5v5.23H87.226V19.5c0-10.752-8.748-19.5-19.5-19.5s-19.5 8.748-19.5 19.5v5.23H26.267c-3.038 0-5.5 2.462-5.5 5.5v408.19c0 3.038 2.462 5.5 5.5 5.5h284.43c3.037 0 5.5-2.462 5.5-5.5V255.168l101.305-101.304c7.534-7.534 7.534-19.794 0-27.33zm-132.475 144.25c-18.11-5.873-32.407-20.17-38.282-38.28l92.972-92.97 38.28 38.28-92.97 92.97zm-55.88 8.95l8.65 8.65-12.974 4.324 4.325-12.975zm20.317 4.76l-16.427-16.427 7.38-22.14c6.797 13.43 17.756 24.39 31.188 31.186l-22.14 7.38zm98.03-152.74l4.505-4.503 38.28 38.28-4.504 4.504-38.28-38.28zM31.768 93.27h273.43V98H31.767v-4.732zM264.292 19.5c0-4.687 3.813-8.5 8.5-8.5s8.5 3.813 8.5 8.5v5.23h-17V19.5zm-51.266 0c0-4.687 3.813-8.5 8.5-8.5 4.687 0 8.5 3.813 8.5 8.5v5.23h-17V19.5zm-51.267 0c0-4.687 3.812-8.5 8.5-8.5s8.5 3.813 8.5 8.5v5.23h-17V19.5zm-51.268 0c0-4.687 3.813-8.5 8.5-8.5s8.5 3.813 8.5 8.5v5.23h-17V19.5zm-51.267 0c0-4.687 3.813-8.5 8.5-8.5 4.687 0 8.5 3.813 8.5 8.5v5.23h-17V19.5zm-11 16.23v3.77c0 10.752 8.748 19.5 19.5 19.5 3.038 0 5.5-2.462 5.5-5.5s-2.462-5.5-5.5-5.5c-4.687 0-8.5-3.813-8.5-8.5v-3.77h40.267v3.77c0 10.752 8.748 19.5 19.5 19.5 3.038 0 5.5-2.462 5.5-5.5s-2.462-5.5-5.5-5.5c-4.687 0-8.5-3.813-8.5-8.5v-3.77h40.267v3.77c0 10.752 8.747 19.5 19.5 19.5 3.037 0 5.5-2.462 5.5-5.5s-2.463-5.5-5.5-5.5c-4.688 0-8.5-3.813-8.5-8.5v-3.77h40.266v3.77c0 10.752 8.748 19.5 19.5 19.5 3.037 0 5.5-2.462 5.5-5.5s-2.463-5.5-5.5-5.5c-4.687 0-8.5-3.813-8.5-8.5v-3.77h40.267v3.77c0 10.752 8.748 19.5 19.5 19.5 3.037 0 5.5-2.462 5.5-5.5s-2.463-5.5-5.5-5.5c-4.687 0-8.5-3.813-8.5-8.5v-3.77h40.905v46.538H31.768V35.73h16.457zm256.972 397.19H31.767V109h273.43v49.495l-69.933 69.933c-.604.604-1.06 1.34-1.33 2.15l-23.03 69.088c-.658 1.976-.144 4.155 1.33 5.628 1.048 1.048 2.454 1.61 3.89 1.61.582 0 1.17-.092 1.74-.28l69.087-23.03c.81-.27 1.547-.725 2.15-1.33l16.097-16.096V432.92zm104.527-286.834l-11.668 11.668-38.28-38.28 11.668-11.668c1.57-1.572 3.662-2.438 5.886-2.438s4.314.866 5.887 2.438l26.507 26.508c3.245 3.245 3.245 8.526 0 11.772z"/><path d="M113.19 195c.792 0 1.595-.17 2.357-.532l18.342-8.712c2.743-1.303 3.91-4.584 2.607-7.328-1.303-2.743-4.583-3.91-7.328-2.608l-18.343 8.712c-2.744 1.303-3.912 4.584-2.608 7.328.94 1.982 2.913 3.14 4.97 3.14z"/><path d="M114.564 304.6l10.89-5.362c2.725-1.342 3.847-4.638 2.505-7.364-1.343-2.726-4.64-3.848-7.365-2.505l-10.89 5.36c-7.78 3.83-17.306 1.3-22.16-5.885-2.743-4.058-3.646-8.92-2.544-13.692 1.103-4.772 4.047-8.747 8.29-11.19l144.89-83.47c6.004-3.458 10.26-9.06 11.985-15.77 1.725-6.71.697-13.668-2.894-19.593-6.815-11.246-20.914-15.474-32.794-9.83l-67.195 31.916c-2.743 1.303-3.91 4.584-2.607 7.328 1.304 2.744 4.584 3.912 7.328 2.608l67.196-31.917c6.763-3.213 14.79-.805 18.668 5.596 2.044 3.374 2.63 7.335 1.647 11.155-.98 3.82-3.404 7.008-6.82 8.977L87.8 254.43c-6.82 3.928-11.746 10.58-13.517 18.247s-.26 15.806 4.146 22.326c5.426 8.032 14.435 12.496 23.652 12.496 4.226 0 8.495-.938 12.482-2.9z"/><path d="M193.445 346.06L122.79 385.59c-6.644 3.716-15.155 1.667-19.378-4.667-2.236-3.353-2.99-7.37-2.12-11.305.87-3.937 3.243-7.26 6.684-9.362l58.238-35.556c6.148-3.754 10.494-9.956 11.923-17.016 1.43-7.06-.162-14.464-4.366-20.313-7.436-10.347-21.132-13.772-32.564-8.144-2.725 1.342-3.847 4.638-2.505 7.364 1.342 2.725 4.64 3.846 7.365 2.505 6.593-3.245 14.487-1.27 18.774 4.695 2.458 3.422 3.353 7.58 2.516 11.71-.836 4.13-3.277 7.615-6.874 9.81l-58.238 35.557c-6.02 3.675-10.172 9.492-11.693 16.38-1.52 6.886-.203 13.91 3.71 19.78 4.898 7.348 13.097 11.4 21.455 11.4 4.244 0 8.53-1.046 12.445-3.236l70.655-39.527c2.65-1.482 3.598-4.833 2.115-7.484-1.484-2.65-4.835-3.597-7.485-2.115zM217.745 332.466l-7.765 4.344c-2.65 1.483-3.598 4.834-2.114 7.485 1.008 1.8 2.878 2.816 4.805 2.816.91 0 1.832-.225 2.682-.7l7.765-4.344c2.65-1.483 3.598-4.834 2.114-7.485-1.483-2.65-4.835-3.597-7.485-2.114zM249.502 314.7l-17.002 9.51c-2.65 1.484-3.598 4.835-2.114 7.486 1.008 1.8 2.878 2.816 4.805 2.816.91 0 1.832-.226 2.682-.7l17.002-9.512c2.65-1.483 3.598-4.834 2.114-7.485-1.484-2.652-4.835-3.597-7.486-2.115z"/></g></svg>