<svg xmlns="http://www.w3.org/2000/svg" viewBox="0 0 511 511"><g><path d="M428.72 128.77l2.28-2.21V0H80v126.56l2.28 2.21C116.923 162.336 136 207.343 136 255.5c0 48.155-19.078 93.163-53.72 126.73L80 384.44V511h351V384.44l-2.28-2.21C394.077 348.664 375 303.656 375 255.5c0-48.156 19.078-93.163 53.72-126.73zM416 120.242c-36.14 36.168-56 84.07-56 135.257 0 51.186 19.86 99.088 56 135.257V496H95V390.757c36.14-36.17 56-84.07 56-135.257 0-51.187-19.86-99.09-56-135.257V15h321v105.243z"/><path d="M335 32H176v447h159V32zM191 47h97v417h-97V47zm129 417h-17V47h17v417z"/><path d="M239.5 216c-21.78 0-39.5 17.72-39.5 39.5s17.72 39.5 39.5 39.5 39.5-17.72 39.5-39.5-17.72-39.5-39.5-39.5zm24.5 39.5c0 4.027-.983 7.827-2.712 11.182l-32.97-32.97c3.355-1.73 7.155-2.712 11.182-2.712 13.51 0 24.5 10.99 24.5 24.5zm-49 0c0-4.027.983-7.827 2.712-11.182l32.97 32.97c-3.355 1.73-7.155 2.712-11.182 2.712-13.51 0-24.5-10.99-24.5-24.5zM256 63.5h15v24h-15zM256 103.5h15v96h-15z"/></g></svg>